<?xml version="1.0" encoding="UTF-8" standalone="no"?><svg xmlns="http://www.w3.org/2000/svg" xmlns:xlink="http://www.w3.org/1999/xlink" contentStyleType="text/css" height="877px" preserveAspectRatio="none" style="width:211px;height:877px;background:#FFFFFF;" version="1.1" viewBox="0 0 211 877" width="211px" zoomAndPan="magnify"><defs/><g><ellipse cx="92" cy="20" fill="#222222" rx="10" ry="10" style="stroke:#222222;stroke-width:1.0;"/><rect fill="#F1F1F1" height="33.7988" rx="12.5" ry="12.5" style="stroke:#181818;stroke-width:0.5;" width="118" x="33" y="50"/><text fill="#000000" font-family="sans-serif" font-size="12" lengthAdjust="spacing" textLength="98" x="43" y="71.2559">iterations = input()</text><rect fill="#F1F1F1" height="33.7988" rx="12.5" ry="12.5" style="stroke:#181818;stroke-width:0.5;" width="91" x="46.5" y="103.7988"/><text fill="#000000" font-family="sans-serif" font-size="12" lengthAdjust="spacing" textLength="71" x="56.5" y="125.0547">frame[51][51]</text><rect fill="#F1F1F1" height="33.7988" rx="12.5" ry="12.5" style="stroke:#181818;stroke-width:0.5;" width="65" x="59.5" y="157.5977"/><text fill="#000000" font-family="sans-serif" font-size="12" lengthAdjust="spacing" textLength="45" x="69.5" y="178.8535">a = {0,0}</text><rect fill="#F1F1F1" height="33.7988" rx="12.5" ry="12.5" style="stroke:#181818;stroke-width:0.5;" width="72" x="56" y="211.3965"/><text fill="#000000" font-family="sans-serif" font-size="12" lengthAdjust="spacing" textLength="52" x="66" y="232.6523">b = {50,0}</text><rect fill="#F1F1F1" height="33.7988" rx="12.5" ry="12.5" style="stroke:#181818;stroke-width:0.5;" width="78" x="53" y="265.1953"/><text fill="#000000" font-family="sans-serif" font-size="12" lengthAdjust="spacing" textLength="58" x="63" y="286.4512">c = {50,50}</text><rect fill="#F1F1F1" height="33.7988" rx="12.5" ry="12.5" style="stroke:#181818;stroke-width:0.5;" width="72" x="56" y="318.9941"/><text fill="#000000" font-family="sans-serif" font-size="12" lengthAdjust="spacing" textLength="52" x="66" y="340.25">d = {0,50}</text><rect fill="#F1F1F1" height="33.7988" rx="12.5" ry="12.5" style="stroke:#181818;stroke-width:0.5;" width="162" x="11" y="416.793"/><text fill="#000000" font-family="sans-serif" font-size="12" lengthAdjust="spacing" textLength="142" x="21" y="438.0488">drawRect(a, b, c, d, frame)</text><rect fill="#F1F1F1" height="33.7988" rx="12.5" ry="12.5" style="stroke:#181818;stroke-width:0.5;" width="102" x="41" y="470.5918"/><text fill="#000000" font-family="sans-serif" font-size="12" lengthAdjust="spacing" textLength="82" x="51" y="491.8477">a = middle(a,b)</text><rect fill="#F1F1F1" height="33.7988" rx="12.5" ry="12.5" style="stroke:#181818;stroke-width:0.5;" width="101" x="41.5" y="524.3906"/><text fill="#000000" font-family="sans-serif" font-size="12" lengthAdjust="spacing" textLength="81" x="51.5" y="545.6465">b = middle(b,c)</text><rect fill="#F1F1F1" height="33.7988" rx="12.5" ry="12.5" style="stroke:#181818;stroke-width:0.5;" width="100" x="42" y="585.6895"/><text fill="#000000" font-family="sans-serif" font-size="12" lengthAdjust="spacing" textLength="80" x="52" y="606.9453">c = middle(c,d)</text><rect fill="#F1F1F1" height="33.7988" rx="12.5" ry="12.5" style="stroke:#181818;stroke-width:0.5;" width="102" x="41" y="639.4883"/><text fill="#000000" font-family="sans-serif" font-size="12" lengthAdjust="spacing" textLength="82" x="51" y="660.7441">d = middle(d,a)</text><rect fill="#F1F1F1" height="33.7988" rx="12.5" ry="12.5" style="stroke:#181818;stroke-width:0.5;" width="157" x="13.5" y="693.2871"/><text fill="#000000" font-family="sans-serif" font-size="12" lengthAdjust="spacing" textLength="137" x="23.5" y="714.543">interations = iterations - 1</text><polygon fill="#F1F1F1" points="92,372.793,104,384.793,92,396.793,80,384.793,92,372.793" style="stroke:#181818;stroke-width:0.5;"/><polygon fill="#F1F1F1" points="56.5,747.0859,127.5,747.0859,139.5,759.0859,127.5,771.0859,56.5,771.0859,44.5,759.0859,56.5,747.0859" style="stroke:#181818;stroke-width:0.5;"/><text fill="#000000" font-family="sans-serif" font-size="11" lengthAdjust="spacing" textLength="71" x="56.5" y="763.0793">interations != 0</text><rect fill="#F1F1F1" height="33.7988" rx="12.5" ry="12.5" style="stroke:#181818;stroke-width:0.5;" width="128" x="28" y="791.0859"/><text fill="#000000" font-family="sans-serif" font-size="12" lengthAdjust="spacing" textLength="108" x="38" y="812.3418">exportFrame(frame)</text><ellipse cx="92" cy="855.8848" fill="none" rx="11" ry="11" style="stroke:#222222;stroke-width:1.0;"/><ellipse cx="92" cy="855.8848" fill="#222222" rx="6" ry="6" style="stroke:#111111;stroke-width:1.0;"/><line style="stroke:#181818;stroke-width:1.0;" x1="92" x2="92" y1="30" y2="50"/><polygon fill="#181818" points="88,40,92,50,96,40,92,44" style="stroke:#181818;stroke-width:1.0;"/><line style="stroke:#181818;stroke-width:1.0;" x1="92" x2="92" y1="83.7988" y2="103.7988"/><polygon fill="#181818" points="88,93.7988,92,103.7988,96,93.7988,92,97.7988" style="stroke:#181818;stroke-width:1.0;"/><line style="stroke:#181818;stroke-width:1.0;" x1="92" x2="92" y1="137.5977" y2="157.5977"/><polygon fill="#181818" points="88,147.5977,92,157.5977,96,147.5977,92,151.5977" style="stroke:#181818;stroke-width:1.0;"/><line style="stroke:#181818;stroke-width:1.0;" x1="92" x2="92" y1="191.3965" y2="211.3965"/><polygon fill="#181818" points="88,201.3965,92,211.3965,96,201.3965,92,205.3965" style="stroke:#181818;stroke-width:1.0;"/><line style="stroke:#181818;stroke-width:1.0;" x1="92" x2="92" y1="245.1953" y2="265.1953"/><polygon fill="#181818" points="88,255.1953,92,265.1953,96,255.1953,92,259.1953" style="stroke:#181818;stroke-width:1.0;"/><line style="stroke:#181818;stroke-width:1.0;" x1="92" x2="92" y1="298.9941" y2="318.9941"/><polygon fill="#181818" points="88,308.9941,92,318.9941,96,308.9941,92,312.9941" style="stroke:#181818;stroke-width:1.0;"/><line style="stroke:#181818;stroke-width:1.0;" x1="92" x2="92" y1="450.5918" y2="470.5918"/><polygon fill="#181818" points="88,460.5918,92,470.5918,96,460.5918,92,464.5918" style="stroke:#181818;stroke-width:1.0;"/><line style="stroke:#181818;stroke-width:1.0;" x1="92" x2="92" y1="504.3906" y2="524.3906"/><polygon fill="#181818" points="88,514.3906,92,524.3906,96,514.3906,92,518.3906" style="stroke:#181818;stroke-width:1.0;"/><line style="stroke:#181818;stroke-width:1.0;" x1="92" x2="92" y1="558.1895" y2="585.6895"/><polygon fill="#181818" points="88,575.6895,92,585.6895,96,575.6895,92,579.6895" style="stroke:#181818;stroke-width:1.0;"/><line style="stroke:#181818;stroke-width:1.0;" x1="92" x2="92" y1="619.4883" y2="639.4883"/><polygon fill="#181818" points="88,629.4883,92,639.4883,96,629.4883,92,633.4883" style="stroke:#181818;stroke-width:1.0;"/><line style="stroke:#181818;stroke-width:1.0;" x1="92" x2="92" y1="673.2871" y2="693.2871"/><polygon fill="#181818" points="88,683.2871,92,693.2871,96,683.2871,92,687.2871" style="stroke:#181818;stroke-width:1.0;"/><line style="stroke:#181818;stroke-width:1.0;" x1="92" x2="92" y1="396.793" y2="416.793"/><polygon fill="#181818" points="88,406.793,92,416.793,96,406.793,92,410.793" style="stroke:#181818;stroke-width:1.0;"/><line style="stroke:#181818;stroke-width:1.0;" x1="139.5" x2="185" y1="759.0859" y2="759.0859"/><polygon fill="#181818" points="181,578.1895,185,568.1895,189,578.1895,185,574.1895" style="stroke:#181818;stroke-width:1.0;"/><line style="stroke:#181818;stroke-width:1.0;" x1="185" x2="185" y1="384.793" y2="759.0859"/><line style="stroke:#181818;stroke-width:1.0;" x1="185" x2="104" y1="384.793" y2="384.793"/><polygon fill="#181818" points="114,380.793,104,384.793,114,388.793,110,384.793" style="stroke:#181818;stroke-width:1.0;"/><line style="stroke:#181818;stroke-width:1.0;" x1="92" x2="92" y1="727.0859" y2="747.0859"/><polygon fill="#181818" points="88,737.0859,92,747.0859,96,737.0859,92,741.0859" style="stroke:#181818;stroke-width:1.0;"/><line style="stroke:#181818;stroke-width:1.0;" x1="92" x2="92" y1="352.793" y2="372.793"/><polygon fill="#181818" points="88,362.793,92,372.793,96,362.793,92,366.793" style="stroke:#181818;stroke-width:1.0;"/><line style="stroke:#181818;stroke-width:1.0;" x1="92" x2="92" y1="771.0859" y2="791.0859"/><polygon fill="#181818" points="88,781.0859,92,791.0859,96,781.0859,92,785.0859" style="stroke:#181818;stroke-width:1.0;"/><line style="stroke:#181818;stroke-width:1.0;" x1="92" x2="92" y1="824.8848" y2="844.8848"/><polygon fill="#181818" points="88,834.8848,92,844.8848,96,834.8848,92,838.8848" style="stroke:#181818;stroke-width:1.0;"/><!--MD5=[04531fc35bbf24f5c84faba3138931ea]
@startuml
start
:iterations = input();
:frame[51][51];
:a = {0,0}; 
:b = {50,0};
:c = {50,50};
:d = {0,50};

repeat
    :drawRect(a, b, c, d, frame);
    :a = middle(a,b);
    :b = middle(b,c);
    :c = middle(c,d);
    :d = middle(d,a);
    :interations = iterations - 1;
repeat while (interations != 0)

:exportFrame(frame);
stop
@enduml

PlantUML version 1.2022.7(Mon Aug 22 19:01:30 CEST 2022)
(GPL source distribution)
Java Runtime: OpenJDK Runtime Environment
JVM: OpenJDK 64-Bit Server VM
Default Encoding: UTF-8
Language: en
Country: US
--></g></svg>